<?xml version="1.0" encoding="UTF-8" standalone="no"?>
<svg
   width="24"
   height="22"
   viewBox="0 0 24 22"
   fill="none"
   stroke="currentColor"
   stroke-width="2"
   stroke-linecap="round"
   stroke-linejoin="round"
   version="1.1"
   id="svg21971"
   xml:space="preserve"
   xmlns="http://www.w3.org/2000/svg"
   xmlns:svg="http://www.w3.org/2000/svg"><defs
     id="defs21975" /><g
     id="g65829"
     transform="matrix(0.75000007,0,0,0.75000007,-4.0113022,9.740477)"
     style="stroke-width:2.66667"><path
       d="m 21.348401,-0.2472843 v 4"
       id="path65809"
       style="fill:none;stroke:#000000;stroke-width:2.66667;stroke-linecap:round;stroke-linejoin:round" /><path
       d="m 23.348401,1.7527157 h -4"
       id="path65811"
       style="fill:none;stroke:#000000;stroke-width:2.66667;stroke-linecap:round;stroke-linejoin:round" /></g><path
     d="m 5.9859575,2 h -1 a 2,2 0 0 0 -2,2 v 5 a 2,2 0 0 1 -1.99999998,2 2,2 0 0 1 1.99999998,2 v 5 c 0,1.1 0.9,2 2,2 h 1"
     id="path65984"
     style="fill:none;stroke:#000000;stroke-width:2;stroke-linecap:round;stroke-linejoin:round" /><path
     d="m 18.028084,20 h 1 c 1.104569,0 2,-0.895431 2,-2 v -5 c 0,-1.1 0.885958,-2 1.985958,-2 -1.104569,0 -1.985958,-0.895431 -1.985958,-2 V 4 c 0,-1.1045695 -0.895431,-2 -2,-2 h -1"
     id="path65986"
     style="fill:none;stroke:#000000;stroke-width:2;stroke-linecap:round;stroke-linejoin:round" /><path
     d="m 9.4849075,4.9996959 h -0.69979 a 1.39958,1.3333672 0 0 0 -1.39958,1.3333672 V 9.666481 a 1.39958,1.3333672 0 0 1 -1.39958,1.333367 1.39958,1.3333672 0 0 1 1.39958,1.333367 v 3.333418 c 0,0.733352 0.629811,1.333367 1.39958,1.333367 h 0.69979"
     id="path66000"
     style="fill:none;stroke:#000000;stroke-width:2;stroke-linecap:round;stroke-linejoin:round" /><path
     d="m 14.515092,17.000152 h 0.69979 a 1.39958,1.3333672 0 0 0 1.39958,-1.333367 V 12.333367 C 16.614462,11.600015 17.244273,11 18.014042,11 A 1.39958,1.3333672 0 0 1 16.614462,9.666633 V 6.3332151 a 1.39958,1.3333672 0 0 0 -1.39958,-1.3333672 h -0.69979"
     id="path66002"
     style="fill:none;stroke:#000000;stroke-width:2;stroke-linecap:round;stroke-linejoin:round" /></svg>
