<svg
  xmlns="http://www.w3.org/2000/svg"
  width="24"
  height="24"
  viewBox="0 0 24 24"
  fill="none"
  stroke="currentColor"
  stroke-width="2"
  stroke-linecap="round"
  stroke-linejoin="round"
>
  <g style="display:inlinefill:nonestroke:#f0f0f0stroke-opacity:1">
    <circle
      cx="12"
      cy="12"
      r="10"
      style="fill:nonestroke:#f0f0f0stroke-width:2stroke-linecap:roundstroke-linejoin:roundstroke-opacity:1"
    />
    <rect
      width="18"
      height="18"
      x="3"
      y="3"
      rx="2"
      ry="2"
      style="display:inlinefill:nonestroke:#f0f0f0stroke-width:2stroke-linecap:roundstroke-linejoin:roundstroke-opacity:1"
    />
  </g>
  <path
    d="m3 10 3-8 3 8"
    style="fill:nonestroke:#000stroke-width:2.00001stroke-linecap:roundstroke-linejoin:round"
  />
  <path
    d="M8 9H4"
    style="fill:nonestroke:#000stroke-width:2.00001stroke-linecap:roundstroke-linejoin:round"
  />
  <path
    d="M15.003 10.023V2"
    style="fill:nonestroke:#000stroke-width:2.00002stroke-linecap:roundstroke-linejoin:round"
  />
  <path
    d="M15.003 6.012 17 6c3.031-.015 3-4 0-4h-1.997"
    style="fill:nonestroke:#000stroke-width:2stroke-linecap:roundstroke-linejoin:roundstroke-opacity:1"
  />
  <path
    d="M15.003 10.015 17 10c3.969.031 4.022-4 0-4l-1.997.012"
    style="fill:nonestroke:#000stroke-width:2stroke-linecap:roundstroke-linejoin:roundstroke-opacity:1"
  />
  <path
    d="M9 22H6.5c-4.703 0-4.713-8 0-8H9"
    style="fill:nonestroke:#000stroke-width:2stroke-linecap:roundstroke-linejoin:roundstroke-opacity:1"
  />
  <path
    d="M18 22c4 0 4-8 0-8h-3v8z"
    style="fill:nonestroke:#000stroke-width:2stroke-linecap:roundstroke-linejoin:roundstroke-opacity:1"
  />
</svg>
