<svg
  xmlns="http://www.w3.org/2000/svg"
  width="24"
  height="24"
  viewBox="0 0 24 24"
  fill="none"
  stroke="currentColor"
  stroke-width="2"
  stroke-linecap="round"
  stroke-linejoin="round"
>
  <g style="display:inlinefill:nonestroke:#f0f0f0stroke-opacity:1">
    <circle
      cx="12"
      cy="12"
      r="10"
      style="fill:nonestroke:#f0f0f0stroke-width:2stroke-linecap:roundstroke-linejoin:roundstroke-opacity:1"
    />
    <rect
      width="18"
      height="18"
      x="3"
      y="3"
      rx="2"
      ry="2"
      style="display:inlinefill:nonestroke:#f0f0f0stroke-width:2stroke-linecap:roundstroke-linejoin:roundstroke-opacity:1"
    />
  </g>
  <path
    d="M21 12v7a2 2 0 0 1-2 2H5a2 2 0 0 1-2-2V5a2 2 0 0 1 2-2h7"
    style="fill:nonestroke:#000stroke-width:2stroke-linecap:roundstroke-linejoin:round"
  />
  <circle
    cx="9"
    cy="9"
    r="2"
    style="fill:nonestroke:#000stroke-width:2stroke-linecap:roundstroke-linejoin:round"
  />
  <path
    d="m21 15-3.086-3.086a2 2 0 0 0-2.828 0L6 21"
    style="fill:nonestroke:#000stroke-width:2stroke-linecap:roundstroke-linejoin:round"
  />
  <path
    d="M16 3h5v5.009"
    style="fill:nonestroke:#000stroke-width:2stroke-linecap:roundstroke-linejoin:round"
  />
  <path
    d="m21 3-5 5"
    style="fill:nonestroke:#000stroke-width:2stroke-linecap:roundstroke-linejoin:round"
  />
</svg>
