<svg
  xmlns="http://www.w3.org/2000/svg"
  width="24"
  height="24"
  viewBox="0 0 24 24"
  fill="none"
  stroke="currentColor"
  stroke-width="2"
  stroke-linecap="round"
  stroke-linejoin="round"
>
  <g style="display:inlinefill:nonestroke:#f0f0f0stroke-opacity:1">
    <circle
      cx="12"
      cy="12"
      r="10"
      style="fill:nonestroke:#f0f0f0stroke-width:2stroke-linecap:roundstroke-linejoin:roundstroke-opacity:1"
    />
    <rect
      width="18"
      height="18"
      x="3"
      y="3"
      rx="2"
      ry="2"
      style="display:inlinefill:nonestroke:#f0f0f0stroke-width:2stroke-linecap:roundstroke-linejoin:roundstroke-opacity:1"
    />
  </g>
  <g transform="translate(-11.437 1.096)">
    <line
      x1="21.437"
      x2="27.437"
      y1="11.904"
      y2="11.904"
      style="fill:nonestroke:#000stroke-width:2stroke-linecap:roundstroke-linejoin:round"
    />
    <line
      x1="24.437"
      x2="24.437"
      y1="8.904"
      y2="14.904"
      style="fill:nonestroke:#000stroke-width:2stroke-linecap:roundstroke-linejoin:round"
    />
  </g>
  <g
    style="fill:nonestroke:currentColorstroke-width:2stroke-linecap:roundstroke-linejoin:round"
    transform="translate(.011 .011)"
  >
    <path d="M12.586 2.586A2 2 0 0 0 11.172 2H4a2 2 0 0 0-2 2v7.172a2 2 0 0 0 .586 1.414l8.704 8.704a2.426 2.426 0 0 0 3.42 0l6.58-6.58a2.426 2.426 0 0 0 0-3.42z" />
    <circle cx="7.5" cy="7.5" r=".5" />
  </g>
</svg>
