<svg
  xmlns="http://www.w3.org/2000/svg"
  width="24"
  height="24"
  viewBox="0 0 24 24"
  fill="none"
  stroke="currentColor"
  stroke-width="2"
  stroke-linecap="round"
  stroke-linejoin="round"
>
  <g style="display:inlinefill:nonestroke:#f0f0f0stroke-opacity:1">
    <circle
      cx="12"
      cy="12"
      r="10"
      style="fill:nonestroke:#f0f0f0stroke-width:2stroke-linecap:roundstroke-linejoin:roundstroke-opacity:1"
    />
    <rect
      width="18"
      height="18"
      x="3"
      y="3"
      rx="2"
      ry="2"
      style="display:inlinefill:nonestroke:#f0f0f0stroke-width:2stroke-linecap:roundstroke-linejoin:roundstroke-opacity:1"
    />
  </g>
  <g style="fill:nonestroke:currentColorstroke-width:3.42857stroke-linecap:roundstroke-linejoin:round">
    <path
      d="M18 6 6 18"
      style="stroke-width:3.42857"
      transform="matrix(.58333 0 0 .58333 -.5 -.5)"
    />
    <path
      d="m6 6 12 12"
      style="stroke-width:3.42857"
      transform="matrix(.58333 0 0 .58333 -.5 -.5)"
    />
  </g>
  <g style="fill:nonestroke:currentColorstroke-width:3.42857stroke-linecap:roundstroke-linejoin:round">
    <path
      d="M18 6 6 18"
      style="stroke-width:3.42857"
      transform="matrix(.58333 0 0 .58333 10.5 -.5)"
    />
    <path
      d="m6 6 12 12"
      style="stroke-width:3.42857"
      transform="matrix(.58333 0 0 .58333 10.5 -.5)"
    />
  </g>
  <g style="fill:nonestroke:currentColorstroke-width:3.42857stroke-linecap:roundstroke-linejoin:round">
    <path
      d="M18 6 6 18"
      style="stroke-width:3.42857"
      transform="matrix(.58333 0 0 .58333 10.5 10.5)"
    />
    <path
      d="m6 6 12 12"
      style="stroke-width:3.42857"
      transform="matrix(.58333 0 0 .58333 10.5 10.5)"
    />
  </g>
  <g style="fill:nonestroke:currentColorstroke-width:3.42857stroke-linecap:roundstroke-linejoin:round">
    <path
      d="M18 6 6 18"
      style="stroke-width:3.42857"
      transform="matrix(.58333 0 0 .58333 -.5 10.5)"
    />
    <path
      d="m6 6 12 12"
      style="stroke-width:3.42857"
      transform="matrix(.58333 0 0 .58333 -.5 10.5)"
    />
  </g>
</svg>
