<?xml version="1.0" encoding="UTF-8" standalone="no"?>
<svg
   width="24"
   height="24"
   viewBox="0 0 24 24"
   fill="none"
   stroke="currentColor"
   stroke-width="2"
   stroke-linecap="round"
   stroke-linejoin="round"
   version="1.1"
   id="svg21971"
   sodipodi:docname="braces-star.svg"
   inkscape:version="1.3.2 (091e20e, 2023-11-25, custom)"
   xml:space="preserve"
   inkscape:export-filename="svg\braces-star.svg"
   inkscape:export-xdpi="95"
   inkscape:export-ydpi="95"
   xmlns:inkscape="http://www.inkscape.org/namespaces/inkscape"
   xmlns:sodipodi="http://sodipodi.sourceforge.net/DTD/sodipodi-0.dtd"
   xmlns="http://www.w3.org/2000/svg"
   xmlns:svg="http://www.w3.org/2000/svg"><defs
     id="defs21975" /><sodipodi:namedview
     id="namedview21973"
     pagecolor="#ffffff"
     bordercolor="#666666"
     borderopacity="1.0"
     inkscape:showpageshadow="2"
     inkscape:pageopacity="0.0"
     inkscape:pagecheckerboard="0"
     inkscape:deskcolor="#d1d1d1"
     showgrid="true"
     inkscape:zoom="21.395833"
     inkscape:cx="11.707887"
     inkscape:cy="12.502434"
     inkscape:window-width="1417"
     inkscape:window-height="935"
     inkscape:window-x="1378"
     inkscape:window-y="209"
     inkscape:window-maximized="0"
     inkscape:current-layer="svg21971"><inkscape:grid
       type="xygrid"
       id="grid24272"
       empspacing="6"
       originx="0"
       originy="0"
       spacingy="1"
       spacingx="1"
       units="px"
       visible="true" /></sodipodi:namedview><g
     id="g49471"
     style="display:inline;fill:none;stroke:#f0f0f0;stroke-opacity:1"
     inkscape:label="backdrop"
     sodipodi:insensitive="true"><circle
       cx="12"
       cy="12"
       r="10"
       id="circle48356"
       style="fill:none;stroke:#f0f0f0;stroke-width:2;stroke-linecap:round;stroke-linejoin:round;stroke-opacity:1"
       inkscape:label="circle" /><rect
       width="18"
       height="18"
       x="3"
       y="3"
       rx="2"
       id="rect49093"
       ry="2"
       style="display:inline;fill:none;stroke:#f0f0f0;stroke-width:2;stroke-linecap:round;stroke-linejoin:round;stroke-opacity:1"
       inkscape:label="sqare" /></g><path
     d="m 12,10.555014 v 3"
     id="path65809"
     style="fill:none;stroke:#000000;stroke-width:2;stroke-linecap:round;stroke-linejoin:round" /><path
     d="m 13.5,12.055014 h -3"
     id="path65811"
     style="fill:none;stroke:#000000;stroke-width:2;stroke-linecap:round;stroke-linejoin:round" /><path
     d="m 5.9859575,3 h -1 a 2,2 0 0 0 -2,2 v 5 a 2,2 0 0 1 -1.99999999,2 2,2 0 0 1 1.99999999,2 v 5 c 0,1.1 0.9,2 2,2 h 1"
     id="path65984"
     style="fill:none;stroke:#000000;stroke-width:2;stroke-linecap:round;stroke-linejoin:round" /><path
     d="m 18.028084,21 h 1 c 1.104569,0 2,-0.895431 2,-2 v -5 c 0,-1.1 0.885958,-2 1.985958,-2 -1.104569,0 -1.985958,-0.895431 -1.985958,-2 V 5 c 0,-1.1045695 -0.895431,-2 -2,-2 h -1"
     id="path65986"
     style="fill:none;stroke:#000000;stroke-width:2;stroke-linecap:round;stroke-linejoin:round"
     sodipodi:nodetypes="cssscsssc" /><path
     d="m 9.4849075,5.9996959 h -0.69979 a 1.39958,1.3333672 0 0 0 -1.39958,1.3333672 v 3.3334179 a 1.39958,1.3333672 0 0 1 -1.39958,1.333367 1.39958,1.3333672 0 0 1 1.39958,1.333367 v 3.333418 c 0,0.733352 0.629811,1.333367 1.39958,1.333367 h 0.69979"
     id="path66000"
     style="fill:none;stroke:#000000;stroke-width:2;stroke-linecap:round;stroke-linejoin:round" /><path
     d="m 14.515092,18.000152 h 0.69979 a 1.39958,1.3333672 0 0 0 1.39958,-1.333367 V 13.333367 C 16.614462,12.600015 17.244273,12 18.014042,12 a 1.39958,1.3333672 0 0 1 -1.39958,-1.333367 V 7.3332151 a 1.39958,1.3333672 0 0 0 -1.39958,-1.3333672 h -0.69979"
     id="path66002"
     style="fill:none;stroke:#000000;stroke-width:2;stroke-linecap:round;stroke-linejoin:round" /></svg>
