<?xml version="1.0" encoding="UTF-8" standalone="no"?>
<svg
   width="24"
   height="24"
   viewBox="0 0 24 24"
   fill="none"
   stroke="currentColor"
   stroke-width="2"
   stroke-linecap="round"
   stroke-linejoin="round"
   version="1.1"
   id="svg21971"
   sodipodi:docname="spiral.svg"
   inkscape:version="1.3.2 (091e20e, 2023-11-25, custom)"
   xml:space="preserve"
   inkscape:export-filename="svg\rows-4-pop.svg"
   inkscape:export-xdpi="95"
   inkscape:export-ydpi="95"
   xmlns:inkscape="http://www.inkscape.org/namespaces/inkscape"
   xmlns:sodipodi="http://sodipodi.sourceforge.net/DTD/sodipodi-0.dtd"
   xmlns="http://www.w3.org/2000/svg"
   xmlns:svg="http://www.w3.org/2000/svg"><defs
     id="defs21975" /><sodipodi:namedview
     id="namedview21973"
     pagecolor="#ffffff"
     bordercolor="#666666"
     borderopacity="1.0"
     inkscape:showpageshadow="2"
     inkscape:pageopacity="0.0"
     inkscape:pagecheckerboard="0"
     inkscape:deskcolor="#d1d1d1"
     showgrid="true"
     inkscape:zoom="32"
     inkscape:cx="10.359375"
     inkscape:cy="10.859375"
     inkscape:window-width="1751"
     inkscape:window-height="1099"
     inkscape:window-x="1294"
     inkscape:window-y="125"
     inkscape:window-maximized="0"
     inkscape:current-layer="svg21971"><inkscape:grid
       type="xygrid"
       id="grid24272"
       empspacing="6"
       spacingx="1"
       spacingy="1"
       originx="0"
       originy="0"
       units="px"
       visible="true" /></sodipodi:namedview><g
     id="g49471"
     style="display:inline;fill:none;stroke:#f0f0f0;stroke-opacity:1"
     inkscape:label="backdrop"
     sodipodi:insensitive="true"><circle
       cx="12"
       cy="12"
       r="10"
       id="circle48356"
       style="fill:none;stroke:#f0f0f0;stroke-width:2;stroke-linecap:round;stroke-linejoin:round;stroke-opacity:1"
       inkscape:label="circle" /><rect
       width="18"
       height="18"
       x="3"
       y="3"
       rx="2"
       id="rect49093"
       ry="2"
       style="display:inline;fill:none;stroke:#f0f0f0;stroke-width:2;stroke-linecap:round;stroke-linejoin:round;stroke-opacity:1"
       inkscape:label="sqare" /></g><path
     sodipodi:type="spiral"
     style="fill:none;fill-rule:evenodd;stroke:#000000;stroke-width:1.92252"
     id="path1"
     sodipodi:cx="12"
     sodipodi:cy="12"
     sodipodi:expansion="1"
     sodipodi:revolution="3.1331577"
     sodipodi:radius="10.443862"
     sodipodi:argument="-18.849556"
     sodipodi:t0="0.15877751"
     d="m 10.341958,12.026308 c -0.386179,-1.144217 0.525689,-2.2667032 1.618514,-2.5175783 1.605864,-0.3686513 3.09205,0.8920503 3.364027,2.4385213 0.362767,2.062706 -1.258477,3.922991 -3.25853,4.210477 C 9.5479362,16.519668 7.3092684,14.532906 7.0090436,12.07919 6.6453137,9.1064515 9.0001416,6.4871982 11.90759,6.1758149 c 3.427139,-0.3670414 6.42827,2.3573272 6.749824,5.7185541 0.371314,3.881375 -2.723526,7.265208 -6.538563,7.596273 C 7.7833417,19.866874 4.0162446,16.40094 3.6761289,12.132072 3.2945261,7.3424908 7.131995,3.1917303 11.854708,2.8429002 c 5.24361,-0.3873047 9.778328,3.8220193 10.135621,8.9985868 0.20192,2.925494 -0.922569,5.843289 -2.993462,7.912099"
     transform="matrix(0.77811785,0.6911594,0.6992287,-0.76972809,-6.6212916,12.091265)" /></svg>
