<?xml version="1.0" encoding="UTF-8" standalone="no"?>
<svg
   width="22"
   height="22"
   viewBox="0 0 22 22"
   fill="none"
   stroke="currentColor"
   stroke-width="2"
   stroke-linecap="round"
   stroke-linejoin="round"
   version="1.1"
   id="svg21971"
   xml:space="preserve"
   xmlns="http://www.w3.org/2000/svg"
   xmlns:svg="http://www.w3.org/2000/svg"><defs
     id="defs21975" /><g
     id="g67235"
     transform="translate(-7.0000002,6.9999999)"><g
       id="g67089"
       transform="translate(-5.4365559,-6.9040966)"><line
         x1="21.436556"
         x2="27.436556"
         y1="11.904097"
         y2="11.904097"
         id="line67061"
         style="fill:none;stroke:#000000;stroke-width:2;stroke-linecap:round;stroke-linejoin:round" /><line
         x1="24.436556"
         x2="24.436556"
         y1="8.9040966"
         y2="14.904097"
         id="line67063"
         style="fill:none;stroke:#000000;stroke-width:2;stroke-linecap:round;stroke-linejoin:round" /></g></g><g
     style="fill:none;stroke:currentColor;stroke-width:2;stroke-linecap:round;stroke-linejoin:round"
     id="g67300"
     transform="translate(-0.9889953,-0.9889953)"><path
       d="M 12.586,2.586 A 2,2 0 0 0 11.172,2 H 4 A 2,2 0 0 0 2,4 v 7.172 a 2,2 0 0 0 0.586,1.414 l 8.704,8.704 a 2.426,2.426 0 0 0 3.42,0 l 6.58,-6.58 a 2.426,2.426 0 0 0 0,-3.42 z"
       id="path67288" /><circle
       cx="7.5"
       cy="7.5"
       r="0.5"
       fill="currentColor"
       id="circle67290" /></g></svg>
